<svg width="238" height="186" viewBox="0 0 238 186" fill="none" xmlns="http://www.w3.org/2000/svg">
<path fill-rule="evenodd" clip-rule="evenodd" d="M8.18268 132.616C16.1773 135.74 24.6626 136.874 32.725 139.72C39.9329 142.265 46.6265 145.686 53.7236 148.272C54.139 144.98 54.3596 139.404 53.1436 136.302C51.4228 131.908 46.8923 131.8 42.4317 130.235C31.5757 126.426 20.1557 125.623 9.37826 121.173C11.2238 124.726 10.3995 129.429 8.18268 132.616ZM146.191 121.126C128.925 121.632 112.424 125.65 95.4066 128.136C87.1257 129.344 78.8373 130.422 70.5489 131.551C67.3593 131.984 61.546 131.473 59.228 134.235C57.3061 136.523 59.412 144.329 58.5587 147.682C62.0486 147.939 68.2449 144.679 72.0329 144.139C77.9312 143.301 83.752 142.126 89.7116 141.752C99.1504 141.157 108.425 140.651 117.847 139.601C127.429 138.533 136.701 136.547 146.359 135.822C151.055 135.469 152.943 136.349 153.22 131.392C153.328 129.455 153.594 126.211 153.051 124.3C153.919 121.95 153.149 120.81 150.739 120.877C149.209 120.704 147.694 120.787 146.191 121.126ZM112.796 105.307C117.465 104.869 122.154 104.241 126.835 103.978C127.784 103.924 132.599 104.214 133.385 103.331C134.498 102.083 133.258 97.5166 133.054 96.1037C132.36 91.299 131.593 88.5055 126.352 88.4946C121.929 88.484 117.35 89.4195 112.944 89.8506C92.9444 91.811 73.0456 92.6387 53.2662 96.3613C54.4704 101.488 55.8371 106.778 54.3972 112.021C63.8855 112.51 74.3025 110.685 83.5756 108.811C93.0531 106.897 103.11 105.947 112.796 105.307ZM81.1413 57.0341C73.9958 57.0664 66.4435 60.2135 59.3927 59.5119C59.2872 60.8235 61.5439 59.7349 62.1669 60.9625C63.4981 60.9657 63.9619 61.4001 63.5551 62.2677C63.5799 62.8593 63.2775 63.2064 62.6469 63.3066C62.3359 63.3346 62.0249 63.3605 61.715 63.3874C60.3515 63.4316 60.1277 64.351 61.0456 66.1487C60.6517 68.3753 61.2425 71.2033 61.3286 73.4386C74.0001 71.7142 86.31 69.9208 99.0708 69.1513C105.095 68.7881 111.115 68.7892 117.132 68.2934C123.752 67.7481 130.978 68.9174 137.45 67.678C140.91 67.0151 140.547 67.0615 140.295 62.5619C140.141 59.8287 140.199 56.5836 137.973 54.5898C134.256 51.2595 125.792 53.1844 121.348 53.3019C107.962 53.6554 94.3487 54.8991 81.1413 57.0341ZM88.4558 121.286C107.598 119.548 126.596 115.74 145.847 115.74C144.486 114.38 141.521 114.03 139.827 113.287C137.896 112.442 136.073 110.641 134.185 109.902C130.397 108.419 126.542 110.48 122.652 111.37C113.267 113.519 103.638 113.592 94.2379 115.7C84.5204 117.879 74.6759 119.888 64.7787 120.995C60.0663 121.522 55.0096 122.592 50.3531 121.347C49.9754 121.076 49.5955 120.806 49.2178 120.536C48.811 118.803 47.6811 118.341 45.828 119.148C43.4745 118.7 40.4774 119.279 38.1081 119.338C38.012 120.284 46.7653 123.252 48.4344 123.987C52.4559 125.758 55.1828 127.055 59.4777 126.296C69.1489 124.588 78.6619 122.548 88.4558 121.286ZM21.1178 65.3209C21.8657 68.2373 25.007 66.9106 27.7113 67.2318C31.3411 67.6618 34.9526 68.9142 38.4683 69.8583C44.853 71.574 51.2399 73.2661 57.5977 75.08C57.3469 72.5117 57.9152 66.6671 56.5582 64.3887C55.1344 62.0004 48.3838 60.9539 45.2405 60.2253C37.3169 58.392 28.8531 59.4353 20.8036 59.8212C20.9456 61.6523 21.0511 63.4844 21.1178 65.3209ZM97.2295 83.5651C104.747 82.9282 112.274 82.4335 119.813 82.1683C128.433 81.8666 122.168 80.4892 121.986 75.2319C110.656 77.0393 99.2268 77.396 87.9328 78.9405C78.5758 80.2219 67.4292 83.5662 57.885 81.7696C53.3835 80.9225 48.7874 80.5959 43.9986 80.1174C39.481 79.6658 35.2184 77.561 30.7557 77.0383C25.7463 76.4509 20.6282 79.267 15.6446 80.0107C13.5321 80.3265 13.0414 81.7588 12.0439 79.2164C11.0097 76.5791 13.9723 74.4236 15.1388 72.8469C16.5012 71.005 15.9352 73.9958 16.6917 71.1192C16.9037 70.3131 16.329 68.288 16.2236 67.4193C15.9567 65.2239 15.2669 62.8421 15.1593 60.651C15.0603 58.6389 15.043 55.5673 17.2276 54.3925C18.5609 53.6758 19.5057 54.7212 20.668 54.5186C29.7409 52.9408 40.4129 52.8115 49.6139 54.3343C59.5885 55.9844 68.1739 51.6151 78.0055 49.8433C89.5384 47.7654 101.193 47.454 112.826 46.5756C122.773 45.8255 140.946 41.9326 144.735 54.6372C145.808 58.2369 147.372 68.1468 144.485 71.2097C140.697 75.2319 131.925 73.9483 127.027 74.9937C127.759 77.0781 129.941 78.4954 129.186 80.9774C136.051 81.3018 137.265 87.7856 138.34 93.8393C139.453 100.102 137.282 102.592 143.268 105.853C151.61 110.398 160.447 114.988 160.283 125.813C160.202 131.256 159.593 139.464 154.004 142.287C148.537 145.05 139.636 144.583 133.61 145.585C121.943 147.529 110.235 149.808 98.4962 150.974C85.9969 152.217 73.2898 153.236 60.7701 153.791C53.9485 154.095 48.0556 155.126 41.4675 152.83C34.9902 150.573 28.654 148.925 21.9712 147.249C15.3734 145.597 -4.82346 143.371 1.06192 132.088C2.00354 130.282 5.22222 128.847 5.74199 127.14C6.5803 124.386 3.74794 122.237 3.86631 119.748C4.08262 115.196 9.21898 114.625 12.7659 114.625C6.68684 110.823 14.8278 106.321 14.7794 103.093C14.6944 97.4056 7.62092 93.7143 7.2206 88.9463C6.24777 77.3443 43.0527 89.4248 48.7174 91.9349C44.3569 98.4004 24.1288 92.8058 18.1035 91.825C18.9257 93.9838 19.7113 95.9248 19.9491 98.1352C20.1418 99.9362 19.4541 101.995 20.0837 103.807C21.078 106.674 21.0436 106.126 24.5636 106.907C27.1679 107.485 29.7431 108.153 32.3387 108.765C36.3258 109.706 42.5974 112.23 46.5479 112.092C50.0131 111.971 49.3287 113.046 49.9636 109.197C50.3058 107.129 49.7225 104.93 49.3739 102.904C48.6464 98.658 47.5821 94.639 51.2905 91.5922C54.8266 88.6866 62.2799 87.3038 66.6168 86.2789C76.2428 84.0048 87.3528 83.4476 97.2295 83.5651Z" fill="black"/>
<path fill-rule="evenodd" clip-rule="evenodd" d="M143.035 11.088C132.581 9.33629 121.959 8.90485 111.382 9.43575C111.955 12.0535 112.528 14.6702 113.102 17.2859C123.012 14.734 133.065 13.2386 143.035 11.088ZM58.0272 31.3922C53.8346 31.0851 56.7513 32.96 57.7865 35.7043C59.0591 39.0758 58.786 43.3382 59.0785 46.8869C71.3453 42.2093 85.6177 39.4715 98.6595 37.8972C104.845 37.1511 111.12 36.937 117.339 36.618C119.178 36.524 125.817 37.2938 127.162 36.0568C128.161 35.1367 127.46 30.0622 126.501 28.942C121.28 22.8577 101.101 28.1116 93.801 28.6566C81.831 29.5508 70.0802 31.6896 58.0272 31.3922ZM75.4494 15.0854C86.3107 16.1289 96.7986 16.0294 107.661 17.6567C106.837 10.7528 107.822 8.99029 99.9894 8.62373C93.0097 8.29827 86.0516 8.03442 79.1044 8.03766C63.4816 8.04631 47.8955 7.74789 32.2555 7.74789V14.7643C46.72 13.283 60.9557 15.958 75.4494 15.0854ZM23.2195 40.888C30.0739 40.8588 36.5528 43.4452 43.4083 44.1156C47.5113 44.5168 46.2224 45.0261 49.0689 47.0859C53.5021 50.2951 54.7791 48.5856 54.2232 44.2248C52.3396 29.474 33.6631 32.7817 22.901 31.962C23.608 35.4794 21.9824 38.4627 19.5871 40.888H23.2195ZM97.3124 21.9494C87.4528 22.1094 77.5813 22.6695 67.7907 22.4652C63.4082 22.3733 57.7303 21.505 53.4352 22.2522C50.2886 22.7993 47.6569 24.4017 44.206 24.9975C49.275 27.7278 51.8452 25.8831 57.1744 25.2614C62.4993 24.6418 67.903 24.6537 73.2495 24.3304C82.0297 23.7984 91.3884 21.6953 100.039 22.2673C100.197 21.0487 99.2889 20.9427 97.3124 21.9494ZM19.11 53.8969C14.5861 53.8871 20.8101 48.7424 21.6273 48.232C16.6187 48.232 15.4065 45.2282 16.8572 40.4025C18.2249 35.8568 19.2363 37.2484 15.7962 33.4629C13.2066 30.6126 12.8147 28.5128 15.8674 25.3262C18.974 22.0846 25.265 23.0015 28.0176 20.3253C32.7035 15.771 26.6564 6.69904 33.1493 3.20975C37.5383 0.852561 44.613 1.14451 49.4586 0.646037C54.1423 0.164867 58.99 0.0718925 63.705 0.0080971C73.9824 -0.132469 84.6581 1.59109 94.8901 2.53937C98.6207 2.8843 102.814 4.39159 106.49 4.39483C110.238 4.39916 114.164 3.56333 118.033 3.65956C122.532 3.77309 126.866 3.44115 131.506 4.17966C135.061 4.74625 143.36 5.04361 146.077 7.68626C155.131 16.4922 133.662 20.5362 129.968 21.5255C133.727 25.6441 133.571 31.0884 133.004 36.2731C134.794 36.2731 137.879 35.4946 138.805 37.5014C139.956 39.9938 135.697 40.6414 134.69 40.9323C128.898 42.605 122.119 42.1466 116.15 42.7543C104.215 43.9686 92.4258 44.6692 80.6156 46.9302C74.86 48.032 69.1389 49.3955 63.3877 50.4681C62.3946 50.6541 61.3961 50.8022 60.3933 50.9147C58.854 50.7828 58.3564 51.7484 58.8993 53.8169C57.3028 54.5965 51.3508 52.6534 49.5104 52.356C38.9739 50.6465 29.5483 51.3569 19.11 53.8969Z" fill="black"/>
<path fill-rule="evenodd" clip-rule="evenodd" d="M231.869 156.21C225.074 161.558 218.757 166.604 211.397 171.251C216.599 171.089 233.901 162.792 231.869 156.21ZM229.215 147.494C225.506 144.307 221.822 144.633 217.231 143.667C213.003 142.777 208.895 141.245 204.676 140.225C201.365 139.426 198.088 138.344 194.789 137.588C190.13 136.52 189.671 137.695 185.386 140.136C170.192 148.796 153.19 154.752 137.185 161.78C141.884 165.917 152.455 166.095 158.327 167.415C162.615 168.377 166.695 169.693 170.802 171.216C174.626 172.636 180.787 175.901 184.82 176.01C188.225 176.102 190.992 172.752 193.923 170.947C197.778 168.573 201.616 166.24 205.502 163.925C213.724 159.026 221.412 153.022 229.215 147.494ZM160.549 182.569C158.795 180.881 153.516 180.955 151.316 180.44C146.984 179.428 142.716 178.376 138.326 177.616C131.202 176.383 119.948 175.832 119.175 166.589C118.53 158.909 127.811 157.086 133.239 154.484C141.401 150.569 149.729 146.957 158.099 143.505C165.946 140.27 173.909 137.533 181.899 134.737C183.457 134.192 184.722 134.267 185.994 133.019C186.998 132.035 186.688 130.124 187.788 129.096C190.307 126.741 193.574 127.98 196.601 128.584C203.474 129.955 210.611 131.755 217.164 134.298C223.974 136.941 230.065 137.493 231.701 145.213C235.182 143.579 237.801 143.342 237.385 148.142C237.263 149.553 236.239 151.087 235.993 152.541C235.631 154.686 236.265 156.947 235.907 159.097C234.604 166.914 224.062 172.706 217.53 175.776C209.475 179.561 199.082 185.153 190.089 185.892C180.507 186.68 170.063 182.916 160.549 182.569Z" fill="black"/>
<path fill-rule="evenodd" clip-rule="evenodd" d="M128.571 3.87388C126.857 3.86274 125.142 3.8516 123.428 3.84045C125.142 3.8516 126.857 3.86274 128.571 3.87388Z" fill="black"/>
<path fill-rule="evenodd" clip-rule="evenodd" d="M122.572 42.4844C123.431 42.4475 124.29 42.4098 125.143 42.3729C124.281 42.4106 123.425 42.4475 122.572 42.4844Z" fill="black"/>
<path fill-rule="evenodd" clip-rule="evenodd" d="M160.286 182.964C161.146 182.987 162.007 183.012 162.857 183.036C161.993 183.012 161.139 182.988 160.286 182.964Z" fill="black"/>
<path fill-rule="evenodd" clip-rule="evenodd" d="M129.428 74.158C130.001 74.1477 130.576 74.1383 131.143 74.1281C130.566 74.1383 129.998 74.1477 129.428 74.158Z" fill="black"/>
<path fill-rule="evenodd" clip-rule="evenodd" d="M125.143 81.6354C124.399 82.3888 123.441 81.944 122.572 81.992C123.429 81.8728 124.286 81.7545 125.143 81.6354Z" fill="black"/>
<path fill-rule="evenodd" clip-rule="evenodd" d="M146.572 135.154C148.572 135.051 150.572 134.949 152.572 134.847C150.572 134.949 148.572 135.052 146.572 135.154Z" fill="black"/>
<path fill-rule="evenodd" clip-rule="evenodd" d="M146.571 120.389C145.425 120.415 144.28 120.442 143.143 120.468C144.291 120.442 145.431 120.415 146.571 120.389Z" fill="black"/>
<path fill-rule="evenodd" clip-rule="evenodd" d="M129.428 103.389C130.857 103.281 132.286 103.172 133.714 103.063C132.382 103.9 130.857 103.281 129.428 103.389Z" fill="black"/>
<path fill-rule="evenodd" clip-rule="evenodd" d="M126.857 137.642C128 137.546 129.143 137.448 130.286 137.352C129.219 138.101 128.014 137.67 126.857 137.642Z" fill="black"/>
<path fill-rule="evenodd" clip-rule="evenodd" d="M138 67.1149C138.857 67.1003 139.715 67.0866 140.571 67.072C139.725 67.6772 138.866 67.5923 138 67.1149Z" fill="black"/>
<path fill-rule="evenodd" clip-rule="evenodd" d="M136.286 136.018C137.428 135.91 138.572 135.803 139.714 135.696C138.572 135.803 137.428 135.91 136.286 136.018Z" fill="black"/>
<path fill-rule="evenodd" clip-rule="evenodd" d="M182.705 150.556C178.756 150.325 173.225 149.249 179.206 146.446C183.001 144.671 188.644 144.547 192.651 145.275C195.413 145.778 199.558 148.067 195.343 151.035C192.876 152.771 185.705 150.641 182.705 150.556Z" fill="black"/>
<path fill-rule="evenodd" clip-rule="evenodd" d="M178.279 157.714C177.138 157.585 175.997 157.457 174.857 157.329C175.773 155.667 178.433 155.318 178.279 157.714Z" fill="black"/>
<path fill-rule="evenodd" clip-rule="evenodd" d="M183.429 150.391C184.575 150.416 185.72 150.442 186.857 150.466C185.708 150.441 184.568 150.416 183.429 150.391Z" fill="black"/>
</svg>
