<svg width="120" height="199" viewBox="0 0 120 199" fill="none" xmlns="http://www.w3.org/2000/svg">
<path fill-rule="evenodd" clip-rule="evenodd" d="M114.578 153.054C114.972 152.123 115.364 151.193 115.758 150.263C116.245 151.885 116.382 152.691 114.578 153.054ZM115.102 157.351C114.248 157.505 114.585 154.813 114.585 154.343C116.059 155.183 114.838 156.189 115.102 157.351ZM113.771 149.585C114.499 149.152 115.226 148.721 115.954 148.288C114.941 150.176 115.338 148.997 115.756 150.257C114.992 150.478 114.249 150.221 113.771 149.585ZM109.459 164.338C106.731 174.288 98.068 182.135 88.9177 186.2C83.6596 188.534 78.4902 189.119 72.812 188.859C70.6221 188.758 68.0451 188.043 65.9375 188.176C64.3148 188.278 64.388 188.349 63.0439 189.73C62.4493 188.629 62.8799 187.857 61.6872 187.216C60.1988 186.416 59.581 187.347 58.8428 188.455C57.8766 187.448 57.4811 186.922 56.2292 186.324C56.2686 186.343 55.0308 186.296 55.0815 186.311C54.8577 186.242 53.5115 185.372 53.09 185.213C51.3603 184.561 49.3604 184.293 47.7644 183.357C46.3682 182.54 45.2184 180.245 43.621 182.008C43.6196 179.062 39.6725 177.84 37.8224 176.297C34.9316 173.886 32.6333 170.316 31.1921 166.862C29.6552 163.18 29.1422 159.649 28.4231 155.854C27.9206 153.202 24.6301 149.369 26.6061 146.693C27.0769 147.815 26.8559 148.964 27.6377 149.982C28.3414 148.618 28.7285 147.093 29.0465 145.601C29.2028 144.87 30.1077 142.724 30.005 142.088C29.796 140.784 28.1915 140.714 29.081 139.116C30.9261 141.135 32.4152 137.59 31.0211 136.177C30.3329 136.957 30.0803 137.844 29.7629 138.81C27.9488 135.129 32.9697 136.314 31.8712 132.99C33.7037 132.636 34.7571 132.172 35.4538 130.351C36.2285 128.326 35.6585 127.884 37.4178 126.546C38.023 126.086 39.7344 125.424 40.0475 124.667C40.6534 123.205 39.1116 122.771 40.462 121.4C40.918 122.205 42.6956 123.798 43.6688 122.282C43.8637 121.98 43.0453 121.766 43.6407 121.069C44.5224 120.039 45.509 119.029 47.0002 119.245C45.8193 116.277 53.3645 116.042 55.2968 115.342C57.2334 114.641 58.8766 114.18 60.93 114.017C62.9813 113.855 63.0833 113.25 64.8201 112.009C64.9671 113.785 65.3922 113.395 66.6483 113.708C66.9502 113.187 67.2598 113.129 67.5765 113.533C67.8917 113.834 68.2774 113.976 68.732 113.959C69.4216 113.995 70.2041 113.904 70.9268 113.919C72.6234 113.952 74.3736 113.81 76.0378 113.846C76.4671 113.774 76.8682 113.624 77.244 113.396C77.4009 113.693 77.5585 113.991 77.7147 114.288C78.5965 114.399 78.6647 115.51 79.7492 114.295C80.07 115.84 80.9919 115.036 81.9658 115.455C82.8539 115.838 82.9953 116.449 83.8152 116.876C84.3542 117.315 84.9319 117.373 85.5498 117.051C86.1374 117.489 86.7341 117.914 87.3393 118.327C88.4547 118.96 89.7692 119.348 90.9444 119.848C91.7262 120.172 92.5031 120.51 93.2737 120.859C93.2969 121.795 93.7142 122.125 94.5248 121.85C95.2574 122.466 95.4636 122.442 96.1743 123.491C97.7844 125.869 99.2129 127.716 101.247 129.842C110.086 139.082 112.801 152.146 109.459 164.338ZM112.172 125.046C108.181 119.673 102.532 113.521 97.4565 110.127C94.8837 108.407 91.2723 105.318 88.1261 104.409C87.3801 104.193 86.6082 104.179 85.8749 103.952C85.3084 103.777 85.0002 103.193 84.3542 103.088C83.9024 103.014 83.8525 104.031 83.3725 103.937C82.369 103.741 81.7329 102.739 81.0243 102.113C79.5022 104.75 78.676 100.316 76.441 103.297C73.781 99.1035 67.5321 100.02 63.2846 100.232C62.0249 100.294 61.4331 100.745 60.3164 101.079C59.277 101.39 59.1742 101.31 58.0392 101.301C55.2124 101.279 52.703 101.636 50.0901 102.885C45.7004 104.981 41.671 108.248 37.5015 110.774C32.8416 113.598 28.6412 117.192 25.0762 121.322C12.1886 136.255 8.74254 158.052 19.0187 175.363C35.3412 202.858 77.4445 205.797 101.302 187.141C119.734 172.726 126.749 144.669 112.172 125.046Z" fill="black"/>
<path fill-rule="evenodd" clip-rule="evenodd" d="M20.2484 68.069C16.2576 66.7502 9.58121 67.0352 8.59377 71.7918C8.1806 73.783 8.98532 75.8892 10.4754 77.3359C12.2034 79.0132 14.9554 79.1687 14.8085 76.2477C14.7063 74.2263 12.6218 72.4705 16.2867 72.063C18.5673 71.8098 21.9406 73.3838 22.0539 75.7088C22.3105 80.9493 12.4809 81.3602 8.85854 80.4538C1.66904 78.656 3.62229 71.7065 8.55947 68.5349C9.83478 67.7152 13.4944 66.4529 13.6615 64.7508C13.8837 62.4933 10.8588 62.9545 9.37612 63.2518C-1.52222 65.4412 -3.89759 82.2901 7.48999 85.4665C12.6614 86.9084 19.9441 85.4196 23.0608 81.0973C25.9828 77.0447 26.0223 69.9769 20.2484 68.069Z" fill="black"/>
<path fill-rule="evenodd" clip-rule="evenodd" d="M107.307 40.4641C105.67 39.8477 103.644 38.644 101.824 39.0543C99.8905 39.49 99.1119 41.484 97.7058 42.6827C93.8829 45.9424 91.6562 41.0842 89.5557 38.4218C87.5719 35.9079 85.1515 35.2977 82.3525 36.8424C81.2373 37.4582 76.5392 40.2796 77.3586 42.0874C77.9477 43.3883 80.2688 42.2204 81.0606 41.9364C82.7793 41.3206 84.3754 40.7816 86.1333 41.6795C89.4307 43.3629 90.2861 47.9791 94.2755 48.6988C98.4007 49.4433 98.536 45.4021 101.48 43.8809C103.454 42.8616 104.828 44.6662 106.732 44.3067C108.547 43.9644 109.386 41.2463 107.307 40.4641Z" fill="black"/>
<path fill-rule="evenodd" clip-rule="evenodd" d="M73.9675 57.1435C75.4244 57.4863 76.3752 54.4244 77.2871 53.6477C78.7998 52.3604 81.4224 52.1009 82.9627 53.3967C85.9708 55.9258 84.9341 61.3861 89.2171 62.8094C93.0452 64.0817 94.8485 58.6182 98.0708 57.258C99.9443 56.467 102.001 55.9492 101.27 53.1111C100.765 51.1485 99.2774 50.6444 97.6602 51.3983C94.8809 52.6928 93.9372 57.9664 90.6422 58.0607C87.2332 58.1583 86.8634 52.8327 85.3999 50.513C83.1686 46.9775 78.5819 46.1234 75.9754 49.5041C75.1885 50.5241 71.1929 56.4924 73.9675 57.1435Z" fill="black"/>
<path fill-rule="evenodd" clip-rule="evenodd" d="M35.5791 7.64398C35.2869 8.34185 32.5582 8.10683 32.4985 7.28403C32.4096 6.05455 36.0867 6.43112 35.5791 7.64398ZM38.4774 7.18742C40.0237 7.31324 42.5643 8.36477 44.0546 7.72936C46.329 6.75961 43.9405 5.27129 42.7205 4.82641C41.479 4.3739 39.6296 4.6143 38.9914 3.31472C38.5111 2.33733 39.6979 -0.391256 38.2256 0.0473319C36.6806 0.507489 37.1299 4.41614 34.7056 3.09858C33.5493 2.4699 34.0211 -1.35966 32.0842 0.596911C31.5541 1.13211 31.5079 2.11489 30.8058 2.51393C30.0895 2.92151 29.1908 2.49686 28.4345 2.53236C26.4321 2.62628 25.7943 4.50151 27.8231 5.24522C28.5741 5.52068 31.4046 5.85682 29.69 7.0854C28.6095 7.85922 26.2095 6.2352 25.2817 7.58241C24.0064 9.43293 27.4223 9.47472 28.3398 10.0283C29.8947 10.9657 28.6104 13.1555 28.7343 14.7148C28.9242 17.0974 30.3067 16.5995 30.809 14.5832C31.235 12.8724 30.7071 10.4099 33.2831 11.0898C37.4782 12.197 30.9504 17.5288 34.0233 18.8931C35.9826 19.7631 36.26 15.0604 36.4122 14.2507C36.9755 11.2619 38.6525 11.9593 41.193 12.051C44.1609 12.1579 44.8773 9.96004 41.7344 9.33047C40.7316 9.1296 39.3522 9.3835 38.4814 8.74404C37.9661 8.36612 37.2578 7.08855 38.4774 7.18742Z" fill="black"/>
</svg>
